<mxfile host="app.diagrams.net" modified="2022-01-08T04:18:22.891Z" agent="5.0 (Macintosh; Intel Mac OS X 10_15_7) AppleWebKit/537.36 (KHTML, like Gecko) Chrome/97.0.4692.71 Safari/537.36" etag="1ZsfHeoQ26p6qx-nnHAW" version="16.2.2" type="github">
  <diagram id="SXav6wTVjm6T2SrGScyL" name="Page-1">
    <mxGraphModel dx="2115" dy="621" grid="1" gridSize="10" guides="1" tooltips="1" connect="1" arrows="1" fold="1" page="1" pageScale="1" pageWidth="1169" pageHeight="827" math="0" shadow="1">
      <root>
        <mxCell id="0" />
        <mxCell id="1" parent="0" />
        <mxCell id="MCO4oEbckZnSG91TUfwP-11" value="GRAPH / CARB" style="rounded=1;whiteSpace=wrap;html=1;fillColor=#d5e8d4;strokeColor=#82b366;" parent="1" vertex="1">
          <mxGeometry x="-860" y="260" width="120" height="60" as="geometry" />
        </mxCell>
        <mxCell id="MCO4oEbckZnSG91TUfwP-12" value="ZIL / CARB" style="rounded=1;whiteSpace=wrap;html=1;fillColor=#d5e8d4;strokeColor=#82b366;" parent="1" vertex="1">
          <mxGeometry x="-860" y="340" width="120" height="60" as="geometry" />
        </mxCell>
        <mxCell id="MCO4oEbckZnSG91TUfwP-13" value="ZUSDT / CARB" style="rounded=1;whiteSpace=wrap;html=1;fillColor=#d5e8d4;strokeColor=#82b366;" parent="1" vertex="1">
          <mxGeometry x="-860" y="420" width="120" height="60" as="geometry" />
        </mxCell>
        <mxCell id="MCO4oEbckZnSG91TUfwP-14" value="Other Pools" style="rounded=1;whiteSpace=wrap;html=1;fillColor=#f5f5f5;strokeColor=#666666;fontColor=#333333;" parent="1" vertex="1">
          <mxGeometry x="-860" y="500" width="120" height="60" as="geometry" />
        </mxCell>
        <mxCell id="MCO4oEbckZnSG91TUfwP-30" value="" style="shape=crossbar;whiteSpace=wrap;html=1;rounded=1;" parent="1" vertex="1">
          <mxGeometry x="-860" y="570" width="120" height="20" as="geometry" />
        </mxCell>
        <mxCell id="MCO4oEbckZnSG91TUfwP-31" value="" style="shape=crossbar;whiteSpace=wrap;html=1;rounded=1;" parent="1" vertex="1">
          <mxGeometry x="-860" y="230" width="120" height="20" as="geometry" />
        </mxCell>
        <mxCell id="MCO4oEbckZnSG91TUfwP-32" value="CarbSwap Pools" style="text;html=1;strokeColor=none;fillColor=none;align=center;verticalAlign=middle;whiteSpace=wrap;rounded=0;" parent="1" vertex="1">
          <mxGeometry x="-855" y="582" width="110" height="30" as="geometry" />
        </mxCell>
        <mxCell id="MCO4oEbckZnSG91TUfwP-33" value="CarbSwap Pools" style="text;html=1;strokeColor=none;fillColor=none;align=center;verticalAlign=middle;whiteSpace=wrap;rounded=0;" parent="1" vertex="1">
          <mxGeometry x="-855" y="210" width="110" height="30" as="geometry" />
        </mxCell>
        <mxCell id="hy4OhUEkCoSjXJdkK4bs-3" value="" style="shape=curlyBracket;whiteSpace=wrap;html=1;rounded=1;flipH=1;" parent="1" vertex="1">
          <mxGeometry x="-720" y="260" width="20" height="300" as="geometry" />
        </mxCell>
        <mxCell id="hy4OhUEkCoSjXJdkK4bs-13" style="edgeStyle=orthogonalEdgeStyle;rounded=0;orthogonalLoop=1;jettySize=auto;html=1;exitX=0.5;exitY=0;exitDx=0;exitDy=0;entryX=0.5;entryY=1;entryDx=0;entryDy=0;" parent="1" source="hy4OhUEkCoSjXJdkK4bs-4" target="hy4OhUEkCoSjXJdkK4bs-5" edge="1">
          <mxGeometry relative="1" as="geometry" />
        </mxCell>
        <mxCell id="hy4OhUEkCoSjXJdkK4bs-14" style="edgeStyle=orthogonalEdgeStyle;rounded=0;orthogonalLoop=1;jettySize=auto;html=1;exitX=0.5;exitY=1;exitDx=0;exitDy=0;entryX=0.5;entryY=0;entryDx=0;entryDy=0;" parent="1" source="hy4OhUEkCoSjXJdkK4bs-4" target="hy4OhUEkCoSjXJdkK4bs-6" edge="1">
          <mxGeometry relative="1" as="geometry" />
        </mxCell>
        <mxCell id="hy4OhUEkCoSjXJdkK4bs-4" value="GRAPH MINTER" style="rounded=1;whiteSpace=wrap;html=1;fillColor=#f8cecc;strokeColor=#b85450;" parent="1" vertex="1">
          <mxGeometry x="-680" y="380" width="120" height="60" as="geometry" />
        </mxCell>
        <mxCell id="hy4OhUEkCoSjXJdkK4bs-11" style="edgeStyle=orthogonalEdgeStyle;rounded=0;orthogonalLoop=1;jettySize=auto;html=1;exitX=1;exitY=0.5;exitDx=0;exitDy=0;dashed=1;" parent="1" source="hy4OhUEkCoSjXJdkK4bs-5" edge="1">
          <mxGeometry relative="1" as="geometry">
            <mxPoint x="-530" y="320" as="targetPoint" />
            <Array as="points">
              <mxPoint x="-540" y="320" />
              <mxPoint x="-540" y="320" />
            </Array>
          </mxGeometry>
        </mxCell>
        <mxCell id="hy4OhUEkCoSjXJdkK4bs-5" value="TXN Rewards" style="rounded=1;whiteSpace=wrap;html=1;fillColor=#f8cecc;strokeColor=#b85450;" parent="1" vertex="1">
          <mxGeometry x="-680" y="300" width="120" height="40" as="geometry" />
        </mxCell>
        <mxCell id="hy4OhUEkCoSjXJdkK4bs-12" style="edgeStyle=orthogonalEdgeStyle;rounded=0;orthogonalLoop=1;jettySize=auto;html=1;exitX=1;exitY=0.5;exitDx=0;exitDy=0;dashed=1;" parent="1" source="hy4OhUEkCoSjXJdkK4bs-6" edge="1">
          <mxGeometry relative="1" as="geometry">
            <mxPoint x="-530" y="500" as="targetPoint" />
          </mxGeometry>
        </mxCell>
        <mxCell id="hy4OhUEkCoSjXJdkK4bs-6" value="LP Rewards" style="rounded=1;whiteSpace=wrap;html=1;fillColor=#f8cecc;strokeColor=#b85450;" parent="1" vertex="1">
          <mxGeometry x="-680" y="480" width="120" height="40" as="geometry" />
        </mxCell>
        <mxCell id="hy4OhUEkCoSjXJdkK4bs-9" value="CarbSwap&lt;br&gt;User" style="shape=umlActor;verticalLabelPosition=bottom;verticalAlign=top;html=1;outlineConnect=0;" parent="1" vertex="1">
          <mxGeometry x="-520" y="290" width="30" height="60" as="geometry" />
        </mxCell>
        <mxCell id="hy4OhUEkCoSjXJdkK4bs-10" value="CarbSwap&lt;br&gt;LPer" style="shape=umlActor;verticalLabelPosition=bottom;verticalAlign=top;html=1;outlineConnect=0;" parent="1" vertex="1">
          <mxGeometry x="-520" y="470" width="30" height="60" as="geometry" />
        </mxCell>
      </root>
    </mxGraphModel>
  </diagram>
</mxfile>
